<?xml version="1.0" standalone="no"?>
<!DOCTYPE svg PUBLIC "-//W3C//DTD SVG 20010904//EN"
 "http://www.w3.org/TR/2001/REC-SVG-20010904/DTD/svg10.dtd">
<svg version="1.0" xmlns="http://www.w3.org/2000/svg"
 width="500.000000pt" height="500.000000pt" viewBox="0 0 500.000000 500.000000"
 preserveAspectRatio="xMidYMid meet">

<g transform="translate(0.000000,500.000000) scale(0.100000,-0.100000)"
fill="#000000" stroke="none">
<path d="M2555 3650 c4 -14 34 -78 67 -144 33 -65 57 -121 54 -124 -3 -3 -43
20 -89 52 -78 54 -155 86 -201 86 -12 0 -39 -9 -61 -19 l-40 -18 43 -18 c62
-25 77 -60 42 -95 -18 -18 -33 -20 -177 -20 -174 0 -222 -13 -263 -70 l-20
-28 58 5 c74 7 102 -6 102 -48 0 -32 -10 -43 -97 -116 -62 -52 -93 -112 -92
-179 0 -27 4 -57 8 -67 6 -17 8 -16 19 7 23 51 71 23 110 -64 11 -25 27 -54
36 -65 15 -18 15 -16 0 25 -20 59 -20 166 1 216 31 74 104 134 203 164 l57 17
-45 13 c-63 19 -67 26 -23 41 50 17 194 17 263 0 66 -17 158 -61 183 -89 19
-20 18 -21 -25 -32 -106 -26 -177 -70 -113 -70 83 0 225 -59 269 -111 26 -31
28 -41 10 -83 -7 -18 -3 -19 54 -14 99 9 175 68 88 68 -49 0 -59 8 -96 83 -16
33 -36 57 -57 67 -40 21 -33 30 23 30 133 0 240 -60 192 -108 -9 -9 -3 -12 28
-12 47 0 69 -12 61 -34 -5 -13 1 -16 36 -15 53 1 111 21 115 41 2 8 -7 41 -19
73 l-22 58 -14 -26 c-15 -30 -21 -32 -57 -16 -32 15 -71 72 -85 126 -9 34 -22
49 -74 86 -136 99 -282 239 -426 412 -27 33 -32 36 -26 15z m415 -452 c15 -13
34 -27 43 -33 9 -5 19 -23 23 -38 6 -27 6 -27 -20 -16 -14 7 -36 28 -48 48
-13 20 -26 42 -31 49 -12 19 2 14 33 -10z"/>
<path d="M2764 3630 c3 -19 8 -60 11 -90 6 -50 11 -60 63 -112 31 -32 60 -58
65 -58 5 0 -7 28 -26 63 -19 34 -49 96 -67 137 -39 90 -54 109 -46 60z"/>
<path d="M2405 3155 c11 -9 29 -22 40 -29 17 -12 12 -14 -49 -21 -142 -15
-231 -55 -276 -123 -50 -76 -49 -169 2 -279 31 -67 134 -167 205 -200 52 -24
70 -27 168 -27 99 -1 196 14 235 34 8 5 -19 8 -61 9 -157 1 -302 82 -355 196
-70 149 18 323 186 371 115 32 111 28 50 51 -30 11 -80 23 -110 27 -51 6 -54
5 -35 -9z"/>
<path d="M1705 3140 c-8 -13 5 -13 25 0 13 8 13 10 -2 10 -9 0 -20 -4 -23 -10z"/>
<path d="M1773 3143 c18 -5 24 -33 6 -33 -5 0 -7 -6 -3 -12 4 -7 4 -10 -1 -6
-4 4 -15 2 -23 -5 -13 -10 -14 -9 -8 1 5 9 3 13 -5 11 -32 -4 -49 2 -49 17 0
29 -27 -4 -44 -53 -21 -60 -20 -89 3 -138 16 -36 63 -95 75 -95 2 0 -4 17 -14
37 -10 20 -16 44 -15 52 2 9 4 24 4 33 1 9 12 30 27 47 14 16 25 33 25 36 -1
3 0 4 2 3 1 -2 17 7 35 20 48 34 40 94 -12 91 -17 -1 -18 -2 -3 -6z m-73 -147
c0 -2 -9 -6 -20 -9 -11 -3 -18 -1 -14 4 5 9 34 13 34 5z m-29 -59 c-10 -9 -11
-8 -5 6 3 10 9 15 12 12 3 -3 0 -11 -7 -18z"/>
<path d="M2358 2899 c-3 -9 -9 -36 -13 -61 -8 -54 19 -120 68 -164 17 -16 25
-20 17 -9 -7 11 0 6 16 -11 41 -42 134 -77 209 -78 92 0 145 6 138 17 -3 6 -2
8 3 4 5 -3 56 -6 114 -8 58 -1 110 -7 117 -12 7 -5 22 -6 34 -2 20 7 19 9 -16
42 -29 27 -39 32 -46 22 -7 -11 -9 -11 -9 2 0 19 -26 33 -42 22 -6 -3 -8 -1
-4 5 6 11 -51 28 -61 18 -3 -3 -13 -1 -22 4 -9 4 -90 10 -179 11 -89 2 -162 6
-162 10 0 6 -58 31 -67 29 -6 0 -43 40 -59 66 -10 14 -21 45 -24 68 -3 26 -8
35 -12 25z m65 -154 c-3 -9 -8 -14 -10 -11 -3 3 -2 9 2 15 9 16 15 13 8 -4z"/>
<path d="M1508 2748 c9 -11 9 -21 -1 -41 -14 -31 -33 -35 -40 -9 -3 12 -5 11
-6 -6 -2 -47 56 -121 101 -128 62 -10 72 -11 56 -7 -10 2 -18 9 -18 14 0 6 -4
8 -9 5 -5 -3 -12 1 -15 10 -5 14 -9 14 -23 3 -14 -12 -15 -12 -7 3 5 9 7 49 4
90 -5 68 -7 73 -30 76 -20 3 -22 1 -12 -10z"/>
<path d="M1134 2719 c3 -13 5 -41 5 -61 1 -26 6 -38 15 -38 8 0 18 -4 21 -10
3 -5 0 -7 -8 -4 -22 8 -27 -8 -19 -57 6 -30 13 -43 23 -41 11 3 11 1 2 -9 -9
-9 -8 -20 5 -48 9 -20 20 -37 25 -39 4 -2 7 -9 7 -16 0 -18 35 -48 45 -39 4 5
5 3 1 -4 -6 -11 26 -37 47 -38 4 0 12 -6 17 -14 7 -13 11 -13 26 0 10 8 15 9
11 3 -15 -26 60 -49 188 -58 108 -8 115 -10 201 -86 32 -28 64 -48 71 -45 8 2
11 0 8 -5 -6 -10 3 -13 38 -13 10 0 15 -2 12 -5 -12 -12 86 -44 185 -61 93
-16 226 -20 295 -8 57 9 165 42 165 50 0 4 5 5 10 2 6 -3 10 -2 10 4 0 6 6 8
14 5 8 -3 17 -1 21 5 3 6 15 11 26 11 11 0 18 3 16 8 -7 10 15 12 187 16 109
3 159 1 185 -9 20 -7 54 -17 76 -21 22 -4 49 -9 60 -11 11 -2 30 -5 42 -6 11
-1 19 -5 16 -9 -2 -5 7 -8 21 -8 14 0 28 5 31 10 3 6 11 10 16 10 6 0 7 -5 3
-11 -5 -8 -1 -8 14 0 11 6 30 11 41 11 12 0 21 5 21 11 0 5 4 8 9 5 5 -3 20 3
33 14 14 11 27 17 30 15 2 -2 18 8 34 23 16 15 33 28 38 28 18 3 96 76 91 85
-3 5 1 6 9 3 10 -4 27 6 46 24 16 17 30 28 30 26 0 -2 11 3 25 12 14 9 22 21
18 27 -3 6 -1 7 5 3 6 -4 21 -2 34 5 12 6 43 14 70 18 l49 6 -31 48 c-18 29
-35 45 -42 41 -7 -4 -8 -3 -4 4 10 17 -58 42 -113 42 -60 0 -91 -9 -91 -26 0
-7 -5 -16 -10 -19 -6 -4 -10 -3 -9 2 3 20 -2 24 -16 11 -32 -29 -45 -38 -45
-33 0 8 -63 -27 -72 -40 -4 -5 -8 -7 -8 -3 0 4 -15 2 -32 -4 -53 -16 -116 -9
-199 23 -42 16 -90 31 -107 32 -17 1 -28 6 -25 11 3 4 -37 6 -88 4 -76 -3
-108 -10 -169 -35 -41 -16 -75 -35 -75 -41 0 -6 -4 -14 -9 -19 -5 -5 -6 -3 -2
5 8 13 -21 10 -74 -10 -13 -5 -54 -8 -91 -7 -36 1 -71 -1 -78 -5 -7 -4 -10 -2
-9 5 2 6 -8 15 -22 19 -14 4 -49 19 -78 34 -29 15 -58 24 -64 20 -6 -4 -8 -3
-4 4 3 6 -3 14 -15 17 -12 4 -24 2 -28 -4 -4 -6 -12 -2 -20 12 -12 19 -12 21
0 12 8 -5 6 -2 -5 8 -10 10 -25 16 -33 13 -7 -3 -12 -1 -10 5 1 6 -7 16 -18
22 -11 7 -45 29 -75 50 -53 35 -96 53 -56 22 11 -8 15 -15 9 -15 -12 0 -28 19
-28 33 0 4 -4 7 -9 6 -5 0 -13 5 -17 13 -7 10 -9 9 -9 -4 0 -10 -4 -18 -9 -18
-5 0 -7 9 -4 19 4 15 -5 22 -47 36 -28 9 -62 15 -75 12 -14 -2 -22 0 -19 4 6
10 -101 4 -128 -6 -41 -16 -25 -61 17 -49 14 4 16 3 6 -4 -10 -8 -9 -12 6 -23
31 -22 42 -49 32 -81 -4 -16 -8 -32 -9 -36 -1 -4 -4 -9 -7 -12 -4 -3 -3 1 1 8
4 6 3 12 -1 12 -5 0 -15 -6 -22 -12 -15 -16 -191 -14 -222 3 -12 6 -19 7 -15
1 3 -5 -23 5 -58 24 -35 18 -67 30 -70 27 -3 -4 -6 -1 -6 5 0 7 -6 12 -13 12
-8 0 -27 11 -43 25 -15 13 -30 23 -31 21 -6 -6 -59 48 -91 93 -26 35 -31 39
-28 20z m86 -95 c0 -8 -19 -13 -24 -6 -3 5 1 9 9 9 8 0 15 -2 15 -3z m911
-101 c13 -16 12 -17 -3 -4 -10 7 -18 15 -18 17 0 8 8 3 21 -13z m-57 -13 c5
-5 18 -10 28 -10 10 0 18 -5 18 -12 0 -6 2 -9 5 -6 3 3 22 -9 41 -26 20 -17
43 -31 52 -31 9 -1 16 -6 15 -13 -2 -6 9 -19 25 -29 15 -9 38 -26 52 -37 23
-20 24 -20 10 -1 -8 11 -1 8 16 -8 37 -34 140 -67 209 -67 36 0 46 -3 35 -10
-8 -5 -31 -10 -50 -10 -26 0 -31 -3 -20 -10 19 -12 13 -12 -27 -1 -20 6 -35 6
-38 0 -4 -5 -12 -9 -18 -9 -7 0 -6 4 3 10 11 7 7 10 -17 10 -34 0 -139 36
-160 54 -6 6 -35 27 -63 46 -28 19 -63 45 -78 58 -43 36 -167 92 -203 92 -34
0 -31 13 6 23 30 9 147 -1 159 -13z m-653 -105 c67 -19 96 -25 129 -29 14 -2
45 -9 69 -15 24 -7 52 -10 62 -8 11 3 17 2 14 -3 -3 -4 3 -11 12 -14 9 -4 20
-1 25 6 6 11 8 10 8 0 0 -7 5 -10 12 -6 7 4 8 3 4 -4 -8 -14 30 -35 47 -26 6
4 9 4 5 0 -3 -4 10 -23 30 -41 37 -33 37 -33 49 -12 12 20 12 20 7 -8 -4 -23
0 -37 20 -58 14 -15 23 -27 20 -27 -3 0 0 -9 6 -20 8 -16 8 -18 -4 -14 -8 3
-17 12 -20 20 -3 9 -11 12 -16 9 -6 -4 -10 -3 -9 2 4 22 -3 24 -23 7 -18 -15
-20 -16 -9 -2 16 21 8 50 -13 42 -8 -3 -21 4 -29 16 -9 14 -20 19 -28 15 -8
-6 -10 -4 -4 5 6 10 3 12 -13 8 -12 -4 -20 -3 -17 2 7 11 -22 21 -40 14 -8 -4
-15 -1 -15 4 0 6 -17 14 -37 17 -21 3 -67 11 -103 16 -81 13 -141 29 -159 43
-12 9 -13 8 -6 -4 7 -12 6 -13 -7 -3 -8 7 -19 9 -23 5 -5 -4 -5 -2 -2 5 4 6
-3 20 -15 30 -29 23 -58 67 -58 88 0 12 9 9 38 -14 20 -16 62 -37 93 -46z
m313 57 c2 -4 -4 -8 -14 -8 -10 0 -16 4 -14 8 3 4 9 8 14 8 5 0 11 -4 14 -8z
m2051 -4 c5 4 5 1 1 -6 -6 -10 -11 -10 -22 -1 -8 6 -14 14 -14 16 0 3 6 0 13
-6 8 -6 18 -7 22 -3z m-22 -30 c48 -18 32 -33 -37 -33 -52 0 -77 -7 -135 -34
-38 -19 -68 -38 -65 -43 3 -4 -2 -5 -10 -2 -9 3 -16 1 -16 -5 0 -6 -6 -10 -12
-8 -7 1 -12 -4 -10 -11 1 -8 -2 -10 -8 -7 -6 4 -26 0 -44 -9 -57 -27 -166 -48
-225 -43 -31 3 -56 6 -56 7 0 1 -7 3 -16 5 -9 1 -29 10 -45 18 -28 15 -25 16
56 10 57 -3 95 -1 115 8 17 7 36 11 43 10 6 -1 12 3 12 9 0 5 3 9 8 8 14 -5
72 24 66 33 -3 5 1 6 8 4 8 -3 25 5 38 17 14 13 26 21 28 19 7 -8 61 22 55 32
-3 6 -1 7 5 3 6 -4 21 -2 32 4 53 29 150 32 213 8z m-2322 -5 c13 -16 12 -17
-3 -4 -10 7 -18 15 -18 17 0 8 8 3 21 -13z m769 -128 c0 -5 -5 -3 -10 5 -5 8
-10 20 -10 25 0 6 5 3 10 -5 5 -8 10 -19 10 -25z m1340 -40 c0 -2 -6 -8 -13
-14 -10 -8 -14 -7 -14 2 0 8 6 14 14 14 7 0 13 -1 13 -2z"/>
<path d="M3630 2720 c0 -5 -7 -7 -15 -4 -8 4 -15 1 -15 -5 0 -6 -3 -10 -7 -10
-26 4 -81 -34 -75 -53 1 -5 -2 -7 -7 -3 -6 3 -20 -13 -31 -36 -23 -44 -23 -66
0 -24 7 14 19 25 26 25 7 0 14 5 16 11 4 13 44 21 100 21 20 0 68 -14 106 -32
86 -39 123 -38 128 5 9 71 -54 115 -161 115 -36 0 -65 -4 -65 -10z m206 -48
c20 -26 17 -52 -5 -52 -21 0 -61 48 -61 74 0 13 5 14 27 5 14 -5 32 -17 39
-27z"/>
<path d="M1640 2659 c0 -5 5 -7 10 -4 6 3 10 8 10 11 0 2 -4 4 -10 4 -5 0 -10
-5 -10 -11z"/>
</g>
</svg>
